<svg xmlns="http://www.w3.org/2000/svg" width="14" height="18" viewBox="0 0 14 18" fill="none">
    <path d="M2.83337 0.666668C2.17033 0.666668 1.53445 0.93006 1.06561 1.3989C0.596766 1.86774 0.333374 2.50363 0.333374 3.16667V14.8333C0.333374 15.4964 0.596766 16.1323 1.06561 16.6011C1.53445 17.0699 2.17033 17.3333 2.83337 17.3333H11.1667C11.8297 17.3333 12.4656 17.0699 12.9345 16.6011C13.4033 16.1323 13.6667 15.4964 13.6667 14.8333V14C13.6667 13.5398 13.2936 13.1667 12.8334 13.1667C12.3731 13.1667 12 13.5398 12 14V14.8333C12 15.0543 11.9122 15.2663 11.756 15.4226C11.5997 15.5789 11.3877 15.6667 11.1667 15.6667H2.83337C2.61236 15.6667 2.4004 15.5789 2.24412 15.4226C2.08784 15.2663 2.00004 15.0543 2.00004 14.8333V3.16667C2.00004 2.94565 2.08784 2.73369 2.24412 2.57741C2.4004 2.42113 2.61236 2.33333 2.83337 2.33333H11.1667C11.3877 2.33333 11.5997 2.42113 11.756 2.57741C11.9122 2.73369 12 2.94565 12 3.16667V4C12 4.46024 12.3731 4.83333 12.8334 4.83333C13.2936 4.83333 13.6667 4.46024 13.6667 4V3.16667C13.6667 2.50363 13.4033 1.86774 12.9345 1.3989C12.4656 0.93006 11.8297 0.666668 11.1667 0.666668H2.83337Z" fill="#D55F5A"/>
    <path d="M10.9226 5.91075C10.5972 5.58531 10.0696 5.58531 9.74412 5.91075C9.41868 6.23618 9.41868 6.76382 9.74412 7.08926L10.8215 8.16667H7.00004C6.5398 8.16667 6.16671 8.53976 6.16671 9C6.16671 9.46024 6.5398 9.83333 7.00004 9.83333H10.8215L9.74412 10.9107C9.41868 11.2362 9.41868 11.7638 9.74412 12.0893C10.0696 12.4147 10.5972 12.4147 10.9226 12.0893L13.4226 9.58926C13.7481 9.26382 13.7481 8.73618 13.4226 8.41075L10.9226 5.91075Z" fill="#D55F5A"/>
</svg>