<svg width="46" height="39" viewBox="0 0 46 39" fill="none" xmlns="http://www.w3.org/2000/svg">
<path d="M23.6273 9.47985L23.7181 9.50624L23.7236 9.5C24.0241 9.53934 24.3195 9.36109 24.4097 9.06446C25.171 6.57208 27.5716 4.82688 30.2499 4.82688C30.5942 4.82688 30.8801 4.55384 30.8801 4.20904C30.8801 3.86423 30.5942 3.59121 30.2499 3.59121C26.9126 3.59121 24.1047 5.75645 23.2026 8.71021C23.1014 9.04098 23.296 9.38358 23.6273 9.47985Z" fill="#483EA8" stroke="#F9FFF9" stroke-width="0.3"/>
<path d="M36.9716 27.1328H34.0908C33.8257 27.1328 33.6106 26.9232 33.6106 26.6649C33.6106 26.4066 33.8257 26.1971 34.0908 26.1971H36.9716C40.9428 26.1971 44.1738 23.0489 44.1738 19.1797C44.1738 15.3104 40.9428 12.1623 36.9716 12.1623H36.9024C36.7631 12.1623 36.6307 12.1035 36.5395 12.0009C36.4483 11.8983 36.4071 11.7623 36.427 11.6279C36.4699 11.3366 36.4915 11.0438 36.4915 10.7588C36.4915 7.40549 33.6912 4.677 30.2495 4.677C28.9106 4.677 27.6338 5.08468 26.5568 5.85625C26.3202 6.02568 25.9841 5.95049 25.8472 5.69686C22.7973 0.0381684 14.8312 -0.721736 10.7011 4.20083C8.96131 6.27463 8.27771 8.97232 8.82549 11.6016C8.88585 11.892 8.65777 12.1626 8.35494 12.1626H8.16254C4.19141 12.1626 0.96034 15.3108 0.96034 19.18C0.96034 23.0493 4.19141 26.1975 8.16254 26.1975H11.0434C11.3085 26.1975 11.5235 26.407 11.5235 26.6653C11.5235 26.9236 11.3085 27.1331 11.0434 27.1331H8.16254C3.66181 27.1331 0 23.5653 0 19.18C0 14.9178 3.45909 11.4278 7.78562 11.2353C7.37921 8.50748 8.15636 5.75598 9.95758 3.6087C14.3794 -1.66204 22.8534 -1.07126 26.4356 4.806C27.5784 4.10793 28.886 3.74172 30.2494 3.74172C34.4191 3.74172 37.7232 7.19966 37.4341 11.2396C41.7208 11.4739 45.134 14.9455 45.134 19.1797C45.134 23.5653 41.4721 27.1328 36.9714 27.1328L36.9716 27.1328Z" fill="#483EA8"/>
<path d="M10.3488 26.4007C10.3488 32.9364 15.8046 38.2466 22.5026 38.2466C29.2007 38.2466 34.6564 32.9363 34.6564 26.4007C34.6564 19.8651 29.2007 14.5549 22.5026 14.5549C15.8045 14.5549 10.3488 19.8652 10.3488 26.4007ZM11.6093 26.4007C11.6093 20.5543 16.4925 15.7908 22.5026 15.7908C28.5126 15.7908 33.3959 20.5542 33.3959 26.4007C33.3959 32.2472 28.5126 37.0107 22.5026 37.0107C16.4926 37.0107 11.6093 32.2473 11.6093 26.4007Z" fill="#483EA8" stroke="#F9FFF9" stroke-width="0.3"/>
<path d="M22.2206 31.109C22.2206 31.3847 22.4489 31.6015 22.7221 31.6015C22.9953 31.6015 23.2237 31.385 23.2237 31.109V22.2039C23.2237 21.9283 22.9954 21.7114 22.7221 21.7114C22.4489 21.7114 22.2206 21.9283 22.2206 22.2039V31.109Z" fill="#483EA8" stroke="#483EA8" stroke-width="0.3"/>
<path d="M22.3688 21.8551C22.5643 21.6645 22.8798 21.6646 23.0753 21.8551L25.8875 24.5951C26.0852 24.7878 26.0853 25.1016 25.8876 25.2943M22.3688 21.8551L25.8875 25.2944C25.8875 25.2943 25.8876 25.2943 25.8876 25.2943M22.3688 21.8551C22.3688 21.8551 22.3688 21.8552 22.3687 21.8552L22.3688 21.8551ZM25.8876 25.2943C25.7893 25.3904 25.6608 25.4372 25.5343 25.4373L25.8876 25.2943ZM25.181 25.2944C25.2791 25.3899 25.4074 25.4372 25.5342 25.4373L20.1585 25.1869L20.2632 25.2944L20.2632 25.2943C20.2633 25.2943 20.2633 25.2943 20.2633 25.2943L22.7221 22.8986L25.181 25.2944Z" fill="#483EA8" stroke="#483EA8" stroke-width="0.3"/>
</svg>
